<!DOCTYPE svg PUBLIC "-//W3C//DTD SVG 20010904//EN" "http://www.w3.org/TR/2001/REC-SVG-20010904/DTD/svg10.dtd">
<svg version="1.0" xmlns="http://www.w3.org/2000/svg" width="1200px" height="606px" viewBox="0 0 12000 6060" preserveAspectRatio="xMidYMid meet">
<g id="layer101" fill="#000000" stroke="none">
</g>
<g id="layer102" fill="#3f1f2a" stroke="none">
<path d="M0 3282 l0 -2777 68 -42 c88 -54 213 -118 232 -119 8 0 29 -8 47 -17 45 -24 142 -44 248 -52 50 -4 105 -14 124 -23 26 -12 37 -13 52 -4 28 18 52 15 107 -14 48 -25 51 -25 76 -9 23 15 28 16 57 1 19 -10 57 -16 95 -16 53 0 65 3 81 23 17 21 24 22 133 21 63 -2 129 -5 147 -9 44 -10 82 19 83 61 0 16 6 38 13 48 13 17 16 17 44 2 17 -8 50 -18 72 -22 23 -4 58 -20 78 -35 42 -34 56 -36 80 -10 13 14 23 17 33 11 8 -5 26 -10 40 -10 14 0 38 -7 53 -15 21 -11 34 -12 48 -5 21 12 46 2 69 -25 10 -12 23 -14 55 -9 29 4 66 -1 117 -15 41 -12 95 -21 120 -21 25 0 62 -7 81 -15 49 -20 64 -19 71 8 6 20 7 20 17 5 5 -10 15 -18 20 -18 6 0 22 -9 36 -20 19 -15 39 -19 84 -18 33 1 64 -3 71 -10 6 -6 23 -8 38 -5 16 3 40 -2 58 -11 30 -15 32 -15 57 8 35 33 72 41 101 21 13 -8 37 -15 53 -15 17 0 45 -9 63 -20 38 -23 59 -25 105 -8 30 11 35 10 61 -15 34 -33 48 -34 58 -5 6 20 8 20 19 5 10 -14 28 -16 106 -14 52 1 117 -2 144 -6 48 -8 52 -7 64 17 11 20 17 23 32 15 11 -5 19 -16 19 -23 0 -18 75 -30 101 -16 15 8 23 7 35 -5 19 -19 31 -19 42 0 7 14 11 14 38 0 16 -8 44 -18 62 -21 46 -9 160 15 181 38 15 15 23 17 44 9 15 -6 38 -7 56 -1 23 6 39 3 68 -12 21 -11 42 -24 48 -29 15 -15 53 -10 64 8 7 13 25 17 83 18 40 1 87 5 104 9 26 7 36 3 73 -28 35 -30 48 -35 69 -28 15 4 44 6 64 6 29 -2 39 2 43 17 5 16 16 19 74 19 56 0 75 -4 104 -24 25 -17 38 -21 46 -13 6 6 35 12 63 13 29 1 74 5 100 9 35 5 52 4 64 -6 13 -11 17 -11 25 2 6 12 21 15 62 11 30 -2 92 3 141 13 48 10 104 15 124 11 21 -3 51 -2 67 3 21 5 40 3 63 -8 28 -13 36 -13 54 -2 11 7 40 14 64 16 24 1 69 13 99 25 43 18 58 20 69 11 12 -10 19 -8 35 8 26 26 29 26 120 1 65 -18 84 -20 170 -11 53 6 155 13 228 17 l132 6 12 -26 c9 -19 17 -25 28 -19 9 4 43 9 76 11 36 2 67 10 78 20 17 15 21 15 53 -3 26 -14 37 -16 46 -7 17 17 87 15 138 -3 56 -20 87 -19 99 2 8 15 14 16 43 5 46 -16 78 -15 98 3 14 13 25 13 90 -1 61 -12 87 -13 140 -4 36 6 100 15 144 20 43 5 90 17 103 25 23 15 28 15 71 -5 78 -37 86 -39 101 -23 12 14 15 13 23 -1 7 -12 25 -16 81 -16 89 1 142 12 179 40 18 13 36 19 46 15 32 -13 127 -33 134 -29 5 3 8 13 8 22 0 13 2 13 14 -3 13 -18 15 -18 46 8 38 32 36 32 78 7 39 -24 68 -26 76 -5 4 11 20 15 56 15 33 0 79 11 130 31 l79 30 20 -20 c26 -26 46 -18 62 22 l11 32 7 -25 c11 -40 59 -39 135 4 49 28 76 36 113 36 28 0 58 7 71 16 12 8 27 12 33 9 14 -9 38 24 39 53 0 15 6 22 20 22 15 0 20 -7 20 -25 0 -37 32 -45 181 -45 l129 0 0 -34 c0 -68 30 -50 44 26 6 35 8 36 39 32 45 -7 97 27 97 63 0 15 -10 37 -21 50 -25 26 -24 27 61 42 30 6 116 22 190 36 163 31 636 120 740 139 41 8 119 22 173 32 59 10 101 14 105 8 4 -5 24 -10 45 -11 30 -1 37 2 37 17 0 19 26 30 74 30 21 0 27 -4 23 -15 -11 -26 16 -29 37 -3 38 45 120 65 156 38 18 -13 29 -16 42 -9 13 7 25 5 42 -7 26 -16 86 -12 86 7 0 5 10 9 23 9 28 0 47 17 47 42 0 21 -4 22 -31 8 -16 -9 -19 -7 -19 9 0 11 5 23 10 26 6 3 10 15 10 26 0 11 6 22 14 25 8 3 19 19 25 35 5 16 15 29 20 29 8 0 11 770 11 2540 l0 2540 -1740 0 c-1535 0 -1740 -2 -1740 -15 0 -8 -4 -15 -10 -15 -5 0 -10 7 -10 15 0 13 -479 15 -4250 15 l-4250 0 0 -2778z m8960 2727 c0 -10 -4 -19 -10 -19 -5 0 -10 12 -10 26 0 14 4 23 10 19 6 -3 10 -15 10 -26z m-2340 9 c0 -19 -18 -43 -25 -36 -9 9 4 48 16 48 5 0 9 -6 9 -12z m1274 -7 c7 -11 -22 -71 -35 -71 -11 0 -11 7 -3 49 6 29 26 41 38 22z m-1244 -61 c0 -13 -5 -18 -15 -14 -8 4 -15 12 -15 20 0 8 7 14 15 14 8 0 15 -9 15 -20z m1345 -4 c23 -17 14 -46 -15 -46 -27 0 -70 28 -70 46 0 18 60 19 85 0z m2610 -304 c0 -31 -19 -28 -23 4 -3 18 0 25 10 22 7 -3 13 -14 13 -26z m-3661 -198 c9 -8 16 -21 16 -29 0 -16 -45 -26 -59 -12 -11 11 -3 38 13 49 14 10 12 10 30 -8z m-6524 -2575 c0 -10 -4 -19 -10 -19 -5 0 -10 12 -10 26 0 14 4 23 10 19 6 -3 10 -15 10 -26z m9285 -2458 c-8 -13 -45 -15 -45 -2 0 5 10 11 23 13 27 5 31 3 22 -11z"/>
<path d="M11987 910 c-3 -11 -1 -23 4 -26 5 -3 9 6 9 20 0 31 -6 34 -13 6z"/>
<path d="M11969 679 c-30 -23 -140 -45 -267 -53 -46 -3 -87 -8 -92 -11 -4 -3 -48 -9 -97 -15 -171 -19 -349 -39 -433 -50 -47 -6 -139 -17 -205 -25 -66 -8 -133 -16 -150 -19 -16 -3 -84 -12 -150 -21 -66 -8 -145 -20 -175 -25 -79 -14 -211 -40 -237 -47 -17 -4 -23 -1 -23 11 0 9 -4 16 -10 16 -19 0 -10 -39 11 -51 20 -10 39 -9 147 7 26 4 62 1 90 -7 68 -19 137 -16 217 11 61 20 86 22 195 19 210 -5 253 -3 320 15 131 36 188 46 315 52 104 5 139 3 174 -9 39 -14 48 -14 72 -1 35 18 53 18 69 -1 10 -12 16 -12 40 6 31 24 126 49 183 49 l37 0 0 85 c0 47 -1 85 -2 84 -2 0 -15 -9 -29 -20z"/>
</g>


</svg>