<!DOCTYPE svg PUBLIC "-//W3C//DTD SVG 20010904//EN" "http://www.w3.org/TR/2001/REC-SVG-20010904/DTD/svg10.dtd">
<svg version="1.0" xmlns="http://www.w3.org/2000/svg" width="1200px" height="864px" viewBox="0 0 12000 6740" preserveAspectRatio="xMidYMid meet">
<g id="layer101" fill="#000000" stroke="none">
</g>
<g id="layer102" fill="#F8F1F3" stroke="none">
<path d="M5452 6643 c5 -25 28 -28 28 -4 0 12 -6 21 -16 21 -9 0 -14 -7 -12 -17z"/>
<path d="M5751 6636 c-12 -15 -12 -19 1 -32 9 -9 26 -14 39 -11 24 4 24 4 2 12 -12 4 -23 16 -25 28 -3 19 -4 19 -17 3z"/>
<path d="M5570 6631 c0 -5 7 -12 16 -15 24 -9 28 -7 14 9 -14 17 -30 20 -30 6z"/>
<path d="M7416 6624 c-8 -20 -8 -21 27 -29 31 -8 34 -3 10 25 -21 24 -29 25 -37 4z"/>
<path d="M2542 6594 c1 -9 9 -19 16 -22 9 -3 13 2 10 14 -1 9 -9 19 -16 22 -9 3 -13 -2 -10 -14z"/>
<path d="M8480 6580 c0 -13 7 -20 20 -20 24 0 27 25 4 34 -23 9 -24 8 -24 -14z"/>
<path d="M8980 6505 c0 -8 5 -15 10 -15 6 0 10 7 10 15 0 8 -4 15 -10 15 -5 0 -10 -7 -10 -15z"/>
<path d="M9075 6490 c32 -33 45 -38 45 -15 0 8 -6 15 -14 15 -7 0 -19 7 -26 15 -7 8 -17 15 -23 15 -6 0 2 -13 18 -30z"/>
<path d="M8013 6495 c-8 -22 5 -48 19 -39 7 5 22 8 33 8 33 1 27 20 -11 33 -29 10 -36 10 -41 -2z"/>
<path d="M4267 6473 c-18 -19 -35 -26 -59 -25 -188 8 -212 11 -220 26 -13 23 -43 20 -94 -10 -37 -22 -54 -26 -91 -21 -25 3 -59 1 -75 -4 -21 -6 -30 -4 -34 6 -12 31 -200 47 -259 21 -22 -9 -35 -10 -47 -2 -13 8 -23 7 -38 -2 -14 -8 -26 -9 -38 -3 -25 13 -112 2 -112 -15 0 -7 -8 -18 -19 -23 -15 -8 -21 -5 -32 15 -12 24 -16 25 -64 17 -27 -4 -97 -7 -155 -6 -73 2 -107 -1 -112 -10 -6 -9 -12 -7 -23 8 -11 14 -19 17 -29 10 -68 -50 -64 -49 -105 -30 -39 17 -40 17 -96 -9 -36 -16 -66 -24 -81 -20 -13 4 -32 -1 -46 -10 -32 -23 -59 -20 -103 10 -37 25 -40 25 -74 10 -20 -8 -49 -15 -66 -16 -134 -3 -165 -7 -201 -25 -21 -11 -42 -24 -46 -30 -4 -5 -15 -1 -28 10 -20 18 -22 18 -71 1 -27 -10 -62 -16 -77 -13 -15 3 -76 -6 -136 -20 -79 -18 -114 -23 -130 -15 -16 7 -31 4 -64 -16 -35 -20 -48 -23 -66 -14 -15 6 -27 7 -33 1 -5 -5 -37 -14 -70 -20 -53 -9 -65 -8 -87 6 -25 17 -28 17 -67 -9 -22 -15 -65 -31 -94 -36 -30 -5 -63 -14 -74 -19 -42 -23 -51 -15 -51 47 0 35 -4 52 -9 43 -7 -11 -13 -10 -35 4 -26 17 -30 17 -85 0 -33 -10 -64 -14 -71 -10 -21 13 -103 15 -138 4 -30 -10 -35 -8 -53 15 -18 23 -27 26 -86 26 -36 0 -83 -5 -105 -12 -31 -9 -44 -9 -59 0 -26 17 -34 16 -101 -15 -49 -22 -63 -24 -79 -15 -10 7 -30 12 -44 12 l-25 0 0 -2950 c0 -1622 2 -2950 5 -2950 3 0 37 16 75 35 75 38 120 44 140 20 19 -23 90 -18 152 10 31 14 82 27 119 31 107 9 127 14 157 39 28 24 31 24 62 9 44 -22 92 -12 157 32 66 45 91 41 136 -22 39 -55 64 -62 131 -37 60 23 240 83 248 83 3 0 11 -13 17 -30 9 -29 13 -30 67 -30 39 0 60 -5 68 -15 9 -12 18 -13 45 -5 19 5 45 7 57 4 13 -3 36 1 52 9 26 12 38 12 98 0 57 -12 87 -13 175 -3 82 10 122 10 176 0 52 -8 86 -9 129 -1 71 14 124 14 211 1 153 -22 418 -40 578 -40 102 0 206 -6 260 -15 53 -9 158 -15 255 -15 165 0 267 -10 348 -31 32 -9 49 -9 68 0 20 9 33 8 62 -5 30 -12 63 -14 167 -10 116 5 130 7 136 25 4 10 12 22 18 26 6 3 11 17 11 31 0 13 5 24 10 24 6 0 10 -20 10 -44 l0 -44 88 -13 c134 -21 248 -18 298 8 35 18 43 19 65 7 39 -21 99 -26 184 -14 44 6 114 14 157 17 66 5 77 8 82 26 l5 21 24 -22 c44 -41 76 -45 172 -21 61 15 101 19 129 14 99 -17 106 -17 106 -6 0 17 32 13 65 -9 23 -15 47 -20 103 -20 63 0 76 3 95 23 32 34 57 41 72 20 14 -19 111 -30 282 -32 77 -1 85 1 115 27 18 16 45 32 61 36 24 6 27 4 27 -18 0 -37 23 -50 73 -41 45 9 122 10 258 4 60 -3 90 0 101 9 13 11 22 9 50 -8 39 -23 96 -26 210 -8 55 8 88 8 112 1 23 -7 39 -7 52 1 11 6 85 13 167 16 l147 5 35 37 c43 47 66 48 87 4 l16 -33 134 -7 c130 -7 184 0 214 25 10 8 24 7 59 -4 41 -14 46 -14 61 0 13 13 15 33 12 97 -3 75 -2 83 21 104 13 12 25 22 27 22 6 0 34 -64 34 -77 0 -7 6 -13 13 -13 8 0 21 -8 30 -18 22 -24 7 -43 -39 -51 -29 -5 -40 -11 -42 -27 -6 -41 160 -95 231 -76 28 8 38 7 51 -6 12 -13 36 -15 124 -13 71 2 131 -3 175 -13 38 -9 72 -16 77 -16 5 0 14 16 20 35 l12 36 21 -24 c12 -13 27 -31 32 -40 7 -12 37 -19 113 -27 57 -5 114 -13 127 -16 25 -6 26 -3 49 98 4 19 11 25 21 22 8 -3 22 1 30 10 23 23 35 20 35 -8 0 -26 -24 -51 -40 -41 -5 3 -10 -1 -10 -9 0 -9 8 -16 18 -16 11 0 24 -13 33 -33 11 -26 21 -33 49 -35 19 -2 43 -11 53 -20 15 -13 46 -17 160 -20 96 -3 147 -8 157 -17 8 -7 40 -15 70 -18 30 -2 88 -11 128 -18 54 -10 80 -10 101 -2 21 7 33 7 40 0 7 -7 18 -7 34 0 20 9 28 8 42 -5 13 -13 19 -14 22 -4 8 21 62 14 89 -13 26 -26 72 -34 229 -39 28 -1 60 -7 72 -14 12 -7 42 -12 67 -12 25 0 48 -4 51 -10 3 -5 20 -10 36 -10 17 0 43 -7 58 -14 15 -8 37 -13 48 -10 11 3 38 -2 59 -12 52 -23 146 -36 275 -38 90 -1 110 -4 128 -20 25 -23 115 -23 222 -1 68 14 115 9 145 -16 10 -8 18 -8 27 -1 7 6 40 12 75 14 l62 3 0 2792 c0 2501 -2 2793 -15 2793 -9 0 -18 8 -22 18 -3 9 -15 25 -27 34 -17 15 -18 20 -7 27 16 10 6 31 -15 31 -8 0 -14 7 -14 15 0 18 41 20 57 4 7 -7 13 -8 17 0 9 14 -29 51 -53 51 -10 0 -24 7 -31 15 -16 19 -60 19 -86 1 -11 -9 -30 -12 -46 -9 -34 7 -54 -8 -62 -47 -3 -17 -12 -30 -20 -30 -10 0 -16 -13 -18 -42 l-3 -43 -73 -2 c-79 -4 -167 16 -201 45 -20 17 -20 17 6 46 25 29 26 29 40 10 14 -18 15 -18 8 6 -11 37 -26 51 -46 45 -10 -3 -32 1 -49 10 -43 22 -62 13 -58 -27 2 -27 9 -34 36 -42 17 -5 32 -15 32 -22 0 -16 -40 -29 -49 -16 -3 6 -31 12 -61 14 -30 1 -58 7 -62 13 -5 6 -11 5 -17 -4 -6 -9 -19 -12 -42 -7 -19 3 -47 8 -63 10 -16 1 -33 10 -37 19 -15 26 -39 47 -55 47 -17 0 -18 12 -3 27 19 19 2 57 -34 76 -33 18 -34 18 -83 -5 -33 -16 -50 -30 -52 -45 -5 -32 31 -63 72 -63 19 0 38 -5 42 -12 7 -12 32 -195 33 -246 1 -37 -25 -36 -78 2 -49 36 -88 45 -108 25 -8 -8 -17 -7 -34 5 -32 22 -61 20 -93 -5 -25 -20 -36 -21 -119 -17 -51 3 -118 13 -149 22 -42 13 -62 14 -77 7 -28 -16 -71 -14 -71 3 0 7 -6 19 -14 25 -10 8 -19 6 -39 -10 -15 -11 -32 -17 -39 -13 -6 4 -56 11 -111 15 -54 4 -105 13 -113 20 -11 9 -21 9 -40 0 -14 -6 -40 -11 -59 -11 -32 0 -35 -3 -35 -28 0 -18 10 -36 30 -54 32 -28 40 -54 14 -44 -9 3 -45 6 -80 6 -50 0 -64 3 -64 15 0 8 9 15 20 15 13 0 20 7 20 20 0 11 -6 20 -14 20 -8 0 -23 11 -33 25 -12 16 -37 30 -73 39 -30 8 -56 19 -58 25 -2 7 -14 6 -36 -3 -45 -19 -217 -20 -275 -1 -25 8 -65 19 -88 26 -24 7 -49 22 -58 36 -12 18 -25 23 -55 23 -21 0 -45 -7 -54 -15 -19 -19 -41 -19 -70 0 -19 13 -29 13 -49 4 -22 -10 -30 -8 -57 11 -27 19 -31 27 -26 53 3 16 6 33 6 38 0 5 9 9 20 9 13 0 20 7 20 19 0 30 19 35 26 6 6 -26 23 -32 39 -16 6 6 26 5 53 -2 49 -13 62 -3 55 37 -5 24 -38 35 -115 39 -14 1 -37 12 -50 25 -39 36 -72 29 -93 -18 -21 -46 -36 -50 -55 -15 -9 16 -22 25 -38 25 -13 0 -43 16 -66 35 -50 41 -57 42 -81 15 -21 -23 -50 -25 -85 -5 -34 19 -70 19 -70 0 0 -19 -24 -30 -42 -19 -7 4 -24 9 -37 10 -14 2 -31 11 -38 20 -9 12 -20 15 -48 10 -28 -6 -42 -2 -68 16 -26 19 -46 23 -122 25 -49 2 -112 4 -140 5 -27 1 -56 0 -64 -2 -24 -8 -22 15 3 49 l25 34 13 -29 c17 -40 16 -39 36 -21 10 9 34 17 53 16 19 0 63 -1 99 -1 94 -2 150 11 150 32 0 25 -84 44 -149 35 -41 -6 -51 -4 -62 12 -8 11 -30 24 -49 29 -28 8 -35 15 -35 34 0 16 9 29 25 37 13 6 39 29 57 50 18 21 32 34 33 28 1 -32 16 -36 75 -20 54 14 59 13 71 -3 7 -9 14 -25 14 -34 0 -21 40 -24 88 -7 27 9 37 8 66 -10 42 -26 56 -26 102 1 35 21 37 21 50 3 8 -10 29 -19 51 -21 21 -2 56 -6 79 -9 30 -5 43 -3 53 9 20 24 50 19 63 -8 15 -35 39 -41 59 -15 l16 22 22 -22 c26 -26 45 -27 86 -1 39 24 65 17 65 -16 0 -20 5 -24 30 -24 17 0 30 5 30 11 0 6 14 -1 31 -15 20 -17 38 -25 50 -21 11 4 19 2 19 -5 0 -8 6 -8 21 0 17 10 24 7 44 -14 13 -14 28 -26 34 -26 5 0 45 13 88 30 42 16 92 30 110 30 25 0 33 4 33 18 0 23 -19 42 -36 35 -7 -2 -23 2 -36 11 -14 10 -43 16 -75 16 -39 0 -72 9 -129 36 -84 39 -119 39 -133 1 -9 -22 -9 -22 -21 5 -17 35 -36 42 -69 22 -25 -15 -32 -14 -106 10 -44 14 -103 26 -131 26 -35 0 -56 5 -65 16 -14 17 -35 15 -91 -10 -36 -15 -38 -15 -66 9 -34 28 -52 32 -52 10 0 -8 -4 -15 -10 -15 -5 0 -10 7 -10 16 0 14 -8 15 -57 9 -31 -4 -68 -11 -81 -16 -18 -7 -32 -4 -57 11 -33 20 -59 25 -202 34 -59 4 -73 2 -73 -10 0 -17 -2 -17 -33 -3 -19 8 -34 6 -81 -15 -57 -25 -60 -26 -105 -10 -43 14 -151 29 -301 41 -37 3 -88 -1 -118 -8 -42 -10 -57 -10 -77 1 -17 9 -43 11 -90 6 -47 -5 -65 -3 -65 5 0 9 -16 10 -57 4 -149 -19 -174 -20 -189 -12 -11 6 -31 5 -55 -3 -27 -9 -42 -10 -51 -3 -7 6 -44 13 -83 15 -38 3 -77 8 -86 12 -12 5 -18 1 -22 -13 -5 -20 -13 -21 -109 -21 -56 0 -167 5 -245 12 -125 10 -150 10 -211 -5 -87 -21 -126 -21 -142 -2 -9 11 -22 14 -39 10 -15 -3 -52 3 -85 15 -33 11 -76 20 -98 20 -21 0 -47 5 -58 12 -14 9 -27 10 -52 1 -43 -14 -221 -15 -256 -2 -15 6 -70 13 -123 15 -53 2 -103 6 -111 9 -8 3 -27 1 -42 -5 -21 -8 -43 -6 -89 6 -36 9 -75 13 -95 9 -24 -4 -37 -2 -43 6 -6 11 -16 8 -47 -9 -50 -28 -175 -32 -190 -7 -6 11 -29 17 -83 20 -71 4 -77 2 -102 -22z m495 -84 c3 -9 53 -8 192 1 185 12 275 9 349 -12 41 -12 45 -19 20 -43 -14 -14 -14 -18 -2 -26 27 -17 45 -9 62 26 16 34 18 35 76 35 33 0 82 -4 108 -9 26 -6 70 -13 96 -16 53 -7 58 -22 14 -43 -20 -10 -27 -22 -33 -58 -6 -41 -11 -48 -42 -61 -37 -15 -82 -6 -82 17 0 7 -13 9 -32 5 -18 -3 -58 1 -88 10 -30 9 -74 18 -96 22 l-42 5 -13 -51 c-8 -31 -19 -53 -30 -56 -9 -3 -26 -28 -38 -56 -11 -28 -24 -49 -28 -46 -5 2 -48 17 -96 32 l-89 28 6 30 c9 42 25 59 50 51 18 -6 19 -5 8 9 -10 12 -11 21 -2 37 6 11 8 24 5 29 -3 5 -49 16 -103 25 -53 9 -116 20 -139 25 -36 7 -43 5 -53 -13 -6 -12 -27 -32 -46 -45 -38 -26 -58 -56 -49 -71 3 -5 12 -7 20 -3 19 7 19 -1 0 -36 -13 -26 -33 -41 -56 -41 -4 0 -16 14 -25 31 -12 25 -14 37 -5 56 14 31 14 33 -3 33 -16 0 -16 0 -41 -108 -14 -60 -15 -81 -6 -112 20 -67 16 -80 -25 -80 l-36 0 4 63 c3 34 8 69 12 78 12 29 -44 42 -184 43 -88 1 -133 5 -141 13 -7 7 -23 36 -34 64 -16 37 -24 46 -28 35 -6 -14 -14 -11 -59 19 -63 44 -110 45 -140 4 -19 -25 -19 -28 -4 -58 10 -19 24 -31 36 -31 24 0 25 -8 3 -32 -18 -20 -63 -24 -81 -6 -6 6 -29 11 -52 10 -45 -2 -44 -3 -30 33 7 18 15 25 25 21 18 -7 19 -2 3 23 -16 26 2 108 23 101 40 -12 90 -2 140 29 45 28 54 30 61 17 12 -22 70 -20 99 2 20 17 25 17 50 5 39 -19 47 -63 20 -106 l-21 -34 32 -41 c31 -40 32 -40 60 -26 15 8 28 22 28 30 0 11 5 14 17 10 9 -4 36 1 60 11 32 13 41 22 36 33 -3 8 -8 34 -11 58 -3 34 0 46 14 57 30 23 49 18 103 -25 55 -44 71 -44 71 -3 0 22 2 24 16 12 13 -10 17 -10 25 2 5 8 9 22 9 31 0 23 29 37 61 31 15 -3 30 0 33 6 9 14 33 14 38 0z m-1327 -34 c14 -11 32 -13 67 -9 57 8 88 -12 88 -55 0 -26 -33 -90 -47 -92 -5 -1 -34 -2 -65 -3 -31 -1 -64 -8 -72 -15 -11 -9 -16 -10 -16 -2 0 13 -49 15 -69 2 -8 -5 -24 -6 -37 -1 -16 7 -24 5 -28 -6 -18 -48 68 -75 99 -31 16 22 16 22 31 2 17 -22 40 -21 66 2 11 10 26 13 46 8 19 -4 33 -2 37 5 5 8 11 4 19 -12 8 -17 21 -24 49 -26 22 -2 37 -8 37 -16 0 -19 -25 -38 -47 -35 -10 1 -26 -1 -36 -6 -10 -4 -34 -5 -54 -2 -24 4 -40 1 -50 -8 -12 -13 -17 -13 -28 -1 -9 8 -53 16 -122 20 -111 8 -123 13 -123 54 0 13 -7 30 -15 38 -25 26 -19 62 15 79 17 9 30 22 30 30 0 11 -12 8 -50 -12 -28 -14 -52 -24 -54 -22 -2 2 -1 24 3 49 5 41 9 45 36 48 17 1 49 7 73 13 31 7 53 6 75 -2 26 -9 39 -8 67 4 44 19 51 20 75 2z m-653 -36 c17 -9 19 -17 13 -47 -3 -21 -17 -56 -30 -78 l-24 -41 23 -22 c13 -13 26 -32 29 -42 5 -18 1 -20 -31 -17 -32 3 -38 7 -46 35 -9 29 -16 34 -74 49 -79 22 -99 13 -94 -40 3 -29 -2 -42 -26 -66 -28 -28 -36 -30 -100 -30 l-70 0 -11 44 c-17 68 -14 88 20 129 23 27 35 35 42 28 16 -16 37 -13 92 14 44 22 52 23 71 10 19 -12 24 -12 40 6 30 33 106 79 131 79 14 0 33 -5 45 -11z m4557 0 c27 -10 31 -15 27 -38 -3 -14 -2 -44 3 -66 5 -28 3 -47 -7 -63 -12 -18 -12 -31 -3 -68 15 -59 7 -83 -30 -91 -41 -8 -41 -43 1 -43 23 0 33 -7 45 -30 37 -72 2 -106 -99 -95 -36 3 -98 1 -142 -5 -65 -10 -86 -9 -119 3 -33 11 -41 19 -43 44 -4 41 19 57 76 55 53 -2 86 16 76 42 -7 18 -35 21 -50 6 -7 -7 -33 -7 -80 0 -97 14 -166 12 -188 -5 -16 -12 -22 -12 -27 -3 -7 10 -11 10 -20 1 -10 -10 -10 -18 -1 -38 10 -21 19 -25 51 -25 36 0 40 -3 46 -30 4 -16 13 -30 21 -30 18 0 18 -24 0 -39 -11 -9 -25 -10 -53 -2 -49 14 -142 14 -182 0 -29 -10 -31 -14 -31 -60 0 -49 4 -53 43 -50 22 3 32 -22 18 -47 -15 -27 -78 -65 -93 -56 -45 25 -108 81 -108 95 0 19 28 46 55 51 13 2 22 15 26 38 4 19 7 36 5 37 -1 1 -28 9 -60 17 -33 9 -61 18 -64 21 -3 3 8 19 24 36 28 29 31 30 88 24 54 -7 61 -5 77 16 13 17 20 20 31 12 7 -5 25 -13 41 -17 36 -9 37 18 1 51 -24 22 -33 24 -78 18 -28 -4 -66 -13 -85 -22 -33 -15 -37 -14 -110 16 -85 35 -101 38 -101 16 0 -19 -14 -19 -76 0 -60 18 -130 11 -144 -16 -20 -36 -11 -54 35 -77 50 -24 58 -48 26 -76 -13 -12 -21 -14 -26 -6 -4 7 -19 9 -37 5 -36 -8 -85 11 -93 36 -4 11 4 39 16 65 29 57 21 64 -72 64 -36 0 -91 5 -123 11 -43 9 -60 9 -69 0 -12 -12 -50 -15 -60 -5 -3 3 -34 8 -69 10 -41 3 -67 10 -75 20 -7 10 -24 14 -50 12 -33 -3 -38 0 -41 19 -3 18 4 24 35 32 53 15 161 13 208 -4 56 -20 70 -19 89 10 13 20 25 25 56 25 22 0 40 -4 40 -10 0 -5 7 -10 15 -10 8 0 15 9 15 20 0 11 -5 20 -11 20 -6 0 -9 16 -7 38 3 33 6 37 29 35 25 -1 27 2 33 47 4 27 11 52 16 55 14 8 50 -32 50 -55 0 -18 6 -19 55 -17 43 1 55 6 55 18 0 24 18 35 81 49 67 15 213 10 231 -8 10 -10 8 -14 -10 -18 -21 -6 -29 -24 -15 -37 3 -4 17 0 30 8 22 15 23 14 23 -9 0 -14 -6 -29 -12 -33 -17 -11 -58 -70 -58 -83 0 -6 7 -24 15 -40 26 -50 89 -34 115 30 10 24 10 39 0 74 -13 46 -7 70 24 96 12 9 19 10 29 1 10 -8 18 -6 33 7 15 13 41 18 124 20 91 2 109 0 135 -17 l29 -20 33 20 c27 17 36 19 48 9 9 -7 22 -9 32 -4 10 4 72 11 138 14 66 4 125 7 131 8 6 1 25 -3 43 -9z m441 -130 c0 -26 -3 -29 -30 -29 -22 0 -30 5 -30 18 0 22 11 38 30 44 23 8 30 0 30 -33z m-6127 -31 c18 -12 33 -22 35 -24 5 -3 -27 -76 -54 -122 -26 -43 -26 -44 -41 -22 -13 18 -22 21 -49 16 -19 -3 -49 -9 -68 -12 -28 -5 -36 -2 -46 16 -6 11 -10 33 -8 48 2 21 8 27 28 27 15 0 26 7 28 18 4 20 13 22 29 6 15 -15 43 -4 43 16 0 55 49 71 103 33z m403 -132 c3 -8 11 -13 19 -10 14 6 29 -22 19 -37 -9 -15 -21 -10 -27 11 -3 12 -14 20 -26 20 -21 0 -27 10 -14 23 11 11 23 8 29 -7z m-642 -52 c9 -70 1 -91 -35 -86 -29 4 -29 5 -23 56 8 70 11 76 32 76 15 0 21 -10 26 -46z m2134 -16 c-1 -29 3 -43 15 -49 21 -12 22 -45 2 -83 -8 -15 -15 -34 -15 -41 0 -11 -29 -24 -52 -25 -14 0 -9 128 5 133 9 3 9 10 -2 30 -13 25 -13 29 7 48 12 11 22 24 22 30 0 6 5 7 10 4 6 -4 10 -25 8 -47z m4470 -74 c15 -4 55 -6 90 -5 46 2 63 -1 68 -12 4 -12 10 -10 29 9 29 29 82 32 170 8 71 -18 84 -28 67 -52 -7 -9 -17 -29 -23 -44 -6 -16 -16 -28 -22 -29 -74 -4 -174 5 -188 17 -11 9 -40 14 -91 14 -55 0 -79 4 -88 15 -11 13 -15 13 -33 0 -18 -13 -23 -12 -49 6 -31 22 -35 39 -16 69 12 19 16 19 86 4z m-1205 -216 c-6 -43 -17 -48 -33 -17 -16 29 6 87 25 67 7 -8 11 -28 8 -50z m2120 -98 c-4 -16 -11 -19 -32 -13 -34 8 -37 11 -23 25 9 9 12 9 12 -2 0 -11 4 -11 17 2 20 21 33 15 26 -12z m267 -24 c0 -8 7 -16 15 -20 21 -8 19 -21 -4 -23 -23 -2 -56 31 -46 46 9 16 35 13 35 -3z m-1782 -164 c7 -5 10 -16 6 -25 -7 -19 -31 -22 -53 -8 -12 8 -12 12 -2 25 15 18 29 20 49 8z m1622 -19 c14 -10 35 -16 47 -15 14 2 33 -7 48 -22 27 -27 33 -55 13 -53 -7 1 -39 -5 -70 -12 -51 -13 -60 -12 -82 3 -38 24 -33 40 10 32 33 -7 35 -6 25 13 -6 11 -20 23 -31 26 -31 10 -24 39 10 44 3 1 17 -7 30 -16z m-93 -2 c16 14 17 -3 1 -19 -11 -11 -48 -17 -48 -8 0 2 3 12 6 21 5 11 10 13 17 6 7 -7 15 -7 24 0z m863 -55 l44 -13 1 -79 c1 -43 5 -103 9 -131 8 -46 6 -53 -9 -59 -21 -9 -67 6 -73 24 -2 7 10 25 27 41 37 34 38 41 10 65 -26 21 -72 36 -114 36 -17 0 -37 6 -43 12 -10 10 -17 10 -32 0 -17 -10 -20 -10 -20 3 0 8 6 15 13 15 6 0 4 5 -6 11 -9 5 -22 7 -28 3 -7 -4 -10 -1 -7 7 7 20 48 39 85 39 35 0 83 18 83 32 0 11 7 10 60 -6z m650 -275 c17 -53 7 -64 -50 -55 l-42 7 5 50 c8 60 33 87 57 58 9 -10 22 -37 30 -60z m-110 49 c0 -10 -43 -46 -64 -54 -10 -3 -24 -2 -31 4 -9 8 -17 4 -29 -15 -21 -32 -32 -32 -39 2 -6 35 -1 48 26 61 24 11 137 13 137 2z m740 -59 c0 -10 -7 -21 -15 -25 -15 -5 -22 24 -8 37 12 13 23 7 23 -12z m-330 -32 c0 -32 -11 -37 -30 -14 -7 8 -19 15 -27 15 -23 0 -9 24 18 31 33 8 39 3 39 -32z m179 4 c9 -20 9 -28 0 -34 -11 -7 -10 -36 7 -143 6 -34 4 -38 -11 -33 -9 4 -21 7 -27 7 -5 0 -8 26 -6 62 3 57 1 64 -19 73 -23 10 -47 60 -37 77 9 14 46 26 65 21 9 -3 22 -16 28 -30z m-1364 -239 c13 -13 34 -16 104 -15 86 2 87 2 100 -25 l12 -27 27 27 c35 32 58 33 112 2 36 -20 52 -23 104 -19 33 2 74 9 89 15 21 8 34 8 53 -2 19 -11 27 -11 36 -2 19 19 43 14 66 -13 13 -14 27 -23 32 -20 6 3 10 -5 10 -18 0 -22 -6 -25 -49 -31 -27 -4 -68 -4 -90 0 -30 5 -57 1 -101 -15 l-60 -22 -22 21 c-17 16 -31 20 -52 16 -18 -4 -38 0 -52 9 -13 8 -30 12 -39 9 -9 -4 -34 -1 -55 6 -33 11 -41 10 -61 -4 -30 -20 -52 -20 -106 0 -35 14 -49 15 -69 6 -28 -13 -29 -12 -38 52 -8 58 16 82 49 50z m1340 -129 c14 -13 25 -28 25 -33 0 -32 -76 -44 -133 -23 -39 15 -112 13 -177 -4 -69 -19 -80 -19 -80 0 0 20 -20 19 -35 -2 -11 -15 -14 -15 -26 -2 -25 26 -49 68 -41 73 4 2 75 4 157 4 107 -1 156 -5 170 -14 18 -11 25 -11 50 6 40 26 61 25 90 -5z m-4283 -3071 c-7 -33 -48 -47 -58 -19 -11 27 3 44 33 41 21 -3 27 -8 25 -22z m2848 -106 c0 -4 -18 -16 -40 -25 -22 -10 -43 -27 -46 -37 -6 -18 -9 -17 -35 12 -34 38 -39 66 -9 57 15 -5 20 -2 20 11 0 14 3 15 12 6 17 -17 58 -15 65 4 6 15 8 15 20 -2 7 -10 13 -21 13 -26z m258 0 c8 2 24 0 35 -6 12 -6 31 -12 42 -14 11 -2 21 -12 23 -24 3 -19 -3 -22 -55 -29 -32 -4 -63 -11 -69 -16 -7 -6 -16 -4 -24 6 -7 8 -21 15 -31 15 -41 0 -35 50 9 66 15 6 34 8 42 4 8 -4 21 -5 28 -2z m772 -98 c0 -10 -7 -20 -15 -24 -11 -4 -15 1 -15 18 0 12 3 26 6 29 11 10 24 -3 24 -23z m-2755 -250 c7 -11 -52 -50 -75 -50 -8 0 -22 5 -30 10 -13 9 -11 13 10 30 26 21 85 27 95 10z m-1445 -30 c0 -12 -28 -25 -36 -17 -9 9 6 27 22 27 8 0 14 -5 14 -10z m1305 -16 c13 -20 14 -28 4 -40 -6 -8 -15 -14 -19 -14 -10 0 -22 59 -14 71 8 13 10 12 29 -17z m-1345 -40 c0 -16 -16 -19 -25 -4 -8 13 4 32 16 25 5 -4 9 -13 9 -21z m2488 -1 c-5 -25 -28 -28 -28 -4 0 12 6 21 16 21 9 0 14 -7 12 -17z m532 -69 c0 -15 -6 -24 -15 -24 -15 0 -21 40 -9 53 12 11 24 -3 24 -29z m448 -37 c4 -20 -25 -34 -40 -19 -15 15 -1 44 19 40 10 -2 19 -11 21 -21z m828 -143 c-7 -18 -36 -7 -36 14 0 8 8 24 18 35 17 19 17 19 20 -8 2 -15 1 -33 -2 -41z m-136 -46 c0 -5 -4 -8 -10 -8 -5 0 -10 10 -10 23 0 18 2 19 10 7 5 -8 10 -18 10 -22z m-2912 -60 c4 -46 -23 -72 -44 -43 -18 25 -18 44 3 67 23 26 37 18 41 -24z m-520 -28 c-13 -20 -28 -27 -28 -12 0 10 22 32 32 32 5 0 3 -9 -4 -20z m-1338 -4 c0 -8 -4 -18 -10 -21 -5 -3 -10 3 -10 14 0 12 5 21 10 21 6 0 10 -6 10 -14z m2590 -11 c17 -20 4 -35 -31 -35 -31 0 -37 12 -16 35 16 18 32 19 47 0z m910 -60 c0 -8 -19 -24 -42 -36 -23 -12 -48 -28 -56 -36 -13 -13 -17 -12 -35 5 -13 13 -17 26 -12 41 7 22 29 28 40 11 4 -6 16 -3 32 10 30 24 73 27 73 5z m763 -131 c-3 -8 -12 -14 -20 -14 -10 0 -13 6 -9 16 3 9 6 20 6 26 0 7 5 6 14 -2 8 -6 12 -18 9 -26z"/>
<path d="M5080 6250 c0 -13 7 -20 20 -20 13 0 20 7 20 20 0 13 -7 20 -20 20 -13 0 -20 -7 -20 -20z"/>
<path d="M6146 6139 c-27 -39 -21 -49 32 -48 71 1 143 50 82 57 -14 1 -41 5 -61 8 -31 5 -39 2 -53 -17z"/>
<path d="M6972 6098 c3 -43 20 -56 27 -21 2 10 9 22 17 26 26 15 16 37 -17 37 -29 0 -30 -1 -27 -42z"/>
<path d="M7063 6133 c-16 -3 -23 -11 -23 -28 0 -15 7 -25 23 -29 40 -10 122 -6 140 9 18 13 18 14 -2 34 -21 21 -75 26 -138 14z"/>
<path d="M6763 6094 c-35 -15 -38 -21 -24 -43 7 -11 15 -11 45 -1 28 9 36 17 36 36 0 27 -11 29 -57 8z"/>
<path d="M7203 5968 c2 -7 14 -13 27 -13 13 0 25 6 28 13 2 8 -7 12 -28 12 -21 0 -30 -4 -27 -12z"/>
<path d="M9775 6419 c-4 -6 2 -21 14 -32 l21 -21 0 21 c0 26 -25 49 -35 32z"/>
<path d="M775 6360 c8 -27 31 -50 52 -50 14 0 57 39 51 46 -3 2 -19 -2 -37 -9 -30 -11 -34 -10 -53 13 l-21 25 8 -25z"/>
<path d="M11210 6346 c0 -8 5 -18 10 -21 6 -3 10 3 10 14 0 12 -4 21 -10 21 -5 0 -10 -6 -10 -14z"/>
<path d="M11365 6330 c-8 -26 -1 -35 20 -26 18 7 17 37 -2 43 -6 2 -14 -5 -18 -17z"/>
<path d="M11864 6289 c-3 -6 0 -15 7 -20 22 -14 29 -11 29 11 0 21 -24 27 -36 9z"/>
<path d="M9780 6246 l0 -36 -132 2 c-73 1 -148 -1 -166 -6 -28 -7 -33 -12 -30 -34 3 -25 7 -27 48 -27 62 0 73 -9 66 -54 -10 -63 7 -69 45 -18 37 50 54 58 62 27 3 -11 16 -24 29 -29 30 -11 50 -35 78 -90 18 -35 20 -49 11 -63 -18 -28 -13 -48 12 -49 73 -4 107 12 107 48 0 10 -10 12 -40 7 -33 -6 -40 -4 -40 10 0 25 19 56 34 56 7 0 18 11 24 24 6 14 27 43 47 64 19 22 35 46 35 54 0 25 -56 58 -99 58 -37 0 -40 2 -53 42 -18 54 -38 61 -38 14z"/>
<path d="M10013 6163 c-16 -3 -23 -11 -23 -27 0 -27 29 -36 111 -36 107 0 180 -31 134 -57 -20 -12 -9 -70 14 -76 29 -7 82 5 88 20 3 8 16 19 29 23 14 6 21 15 18 23 -9 23 23 42 50 29 17 -8 42 -7 88 0 53 10 84 8 174 -6 140 -23 154 -29 154 -61 0 -30 25 -34 40 -5 14 26 25 25 57 -4 l25 -24 34 20 c52 31 101 38 189 27 109 -13 122 -16 146 -40 16 -16 24 -18 34 -9 7 6 33 11 56 12 40 0 67 -17 81 -51 2 -4 28 -5 58 -2 30 3 123 4 207 1 138 -5 154 -7 182 -28 l31 -23 0 79 0 79 -86 7 c-61 4 -101 13 -134 30 -44 22 -50 23 -70 9 -20 -14 -25 -14 -57 1 -27 13 -43 14 -71 7 -20 -5 -59 -12 -87 -16 -66 -8 -319 19 -422 45 -68 17 -118 20 -320 23 -176 1 -244 5 -261 15 -40 23 -159 26 -234 8 -61 -16 -71 -16 -119 -2 -52 16 -73 17 -116 9z"/>
<path d="M9000 6073 c-39 -15 -40 -58 0 -78 16 -8 57 -18 91 -22 52 -5 63 -3 71 11 9 17 11 17 23 -1 19 -27 80 -20 91 10 12 37 10 41 -21 48 -16 4 -57 14 -90 23 -60 15 -137 19 -165 9z"/>
<path d="M8710 6057 c0 -22 22 -37 57 -37 22 0 33 5 33 14 0 18 -6 22 -52 30 -29 5 -38 4 -38 -7z"/>
<path d="M9310 6031 c0 -6 12 -16 26 -21 33 -13 34 -13 34 5 0 8 -6 15 -14 15 -8 0 -21 3 -30 6 -9 3 -16 1 -16 -5z"/>
<path d="M8220 5998 c0 -8 7 -21 15 -28 19 -16 19 -1 0 24 -12 16 -15 17 -15 4z"/>
<path d="M9007 5886 c-23 -18 -21 -60 5 -100 l23 -34 111 -7 c61 -4 121 -4 133 0 23 7 27 29 11 69 -8 22 -15 26 -53 26 -36 0 -50 6 -77 31 -31 30 -34 31 -72 20 -26 -8 -43 -9 -51 -2 -8 6 -18 5 -30 -3z"/>
<path d="M10632 5868 c-15 -15 -16 -51 0 -46 6 2 16 12 22 21 14 22 -4 43 -22 25z"/>
<path d="M11320 5849 c0 -27 33 -41 65 -29 37 14 26 34 -23 41 -36 4 -42 3 -42 -12z"/>
<path d="M10500 5835 c0 -22 4 -26 23 -23 14 2 22 10 22 23 0 13 -8 21 -22 23 -19 3 -23 -1 -23 -23z"/>
<path d="M11506 5813 c-5 -35 -2 -51 9 -62 14 -14 19 -13 50 3 19 11 35 24 35 30 0 10 -72 76 -83 76 -2 0 -7 -21 -11 -47z"/>
<path d="M9382 5828 c-23 -23 -14 -55 19 -67 41 -14 39 -14 39 8 0 30 -44 73 -58 59z"/>
<path d="M9478 5810 c-24 -15 -23 -61 3 -94 16 -21 29 -26 64 -26 38 0 45 -3 54 -27 9 -23 9 -17 5 30 -4 35 -2 57 4 57 5 0 12 -9 15 -20 3 -11 9 -20 15 -20 12 0 25 81 15 91 -14 13 -156 21 -175 9z"/>
<path d="M9697 5783 c-10 -19 -16 -63 -11 -77 9 -25 43 -19 56 9 8 19 8 31 0 50 -11 24 -36 34 -45 18z"/>
<path d="M9855 5782 c-16 -12 -17 -39 -1 -76 14 -33 17 -35 53 -30 21 3 53 10 71 16 30 9 32 13 32 54 l0 44 -72 0 c-40 0 -77 -4 -83 -8z"/>
<path d="M9778 5766 c-19 -14 -24 -36 -9 -36 6 0 13 5 16 10 3 6 15 10 26 10 12 0 19 5 17 13 -6 17 -30 19 -50 3z"/>
<path d="M10063 5750 c4 -18 7 -39 7 -46 0 -15 69 -18 125 -5 19 5 38 2 52 -7 21 -13 23 -12 33 13 5 14 10 28 10 29 0 8 -50 18 -120 25 -41 4 -84 11 -94 16 -17 8 -19 5 -13 -25z"/>
<path d="M10345 5740 c-3 -11 -4 -24 0 -30 9 -14 45 11 45 32 0 25 -37 23 -45 -2z"/>
<path d="M10410 5741 c0 -20 75 -91 96 -91 6 0 17 7 24 15 12 14 15 14 30 0 19 -17 50 -20 50 -4 0 6 5 7 13 2 6 -4 20 -6 30 -5 9 2 18 -3 18 -10 1 -7 5 5 9 27 4 22 6 42 4 44 -2 2 -20 0 -39 -6 -27 -9 -37 -8 -46 3 -8 9 -33 14 -79 14 -48 0 -71 4 -80 15 -17 21 -30 19 -30 -4z"/>
<path d="M11971 5707 c-8 -10 -7 -19 4 -33 14 -18 14 -17 15 14 0 36 -2 38 -19 19z"/>
</g>


</svg>